<svg width="180" height="46" viewBox="0 0 180 46" fill="none" xmlns="http://www.w3.org/2000/svg">
<path d="M65.2761 8.18129V10.8351H57.2709V16.1428H65.2761V18.7967H54.6025V2.8736H65.2761V5.52744H57.2709V8.18129H65.2761ZM67.9445 8.18129H65.2761V5.52744H67.9445V8.18129ZM65.2761 16.1428V10.8351H67.9445V16.1428H65.2761Z" fill="white"/>
<path d="M73.2817 16.1428H70.6133V2.8736H73.2817V16.1428ZM81.2868 16.1428V18.7967H73.2817V16.1428H81.2868ZM81.2868 2.8736H83.9552V16.1428H81.2868V2.8736Z" fill="white"/>
<path d="M86.623 5.52744H89.2914V8.18129H86.623V5.52744ZM89.2914 5.52744V2.8736H99.965V5.52744H89.2914ZM89.2914 10.8351V8.18129H97.2966V10.8351H89.2914ZM97.2966 16.1428V18.7967H89.2914V16.1428H97.2966ZM97.2966 16.1428V10.8351H99.965V16.1428H97.2966Z" fill="white"/>
<path d="M105.296 2.8736V8.18129H102.628V2.8736H105.296ZM105.296 8.18129H107.965V10.8351H105.296V8.18129ZM107.965 10.8351H110.633V18.7967H107.965V10.8351ZM110.633 10.8351V8.18129H113.301V10.8351H110.633ZM113.301 2.8736H115.97V8.18129H113.301V2.8736Z" fill="white"/>
<path d="M57.2768 40.4726H54.6084V29.8572H57.2768V40.4726ZM57.2768 29.8572V27.2033H65.2819V29.8572H57.2768ZM57.2768 43.1264V40.4726H65.2819V43.1264H57.2768Z" fill="white"/>
<path d="M70.6127 40.4726H67.9443V29.8572H70.6127V40.4726ZM70.6127 29.8572V27.2033H78.6179V29.8572H70.6127ZM78.6179 40.4726V43.1264H70.6127V40.4726H78.6179ZM78.6179 29.8572H81.2863V40.4726H78.6179V29.8572Z" fill="white"/>
<path d="M83.9551 29.8572H86.6235V43.1264H83.9551V29.8572ZM86.6235 27.209H89.2919V29.8628H86.6235V27.209ZM91.9602 37.8187H89.2919V29.8572H91.9602V37.8187ZM91.9602 37.8187H94.6286V43.1264H91.9602V37.8187ZM94.6286 29.8572H97.297V37.8187H94.6286V29.8572ZM97.2913 27.209H99.9597V29.8628H97.2913V27.209ZM99.9597 29.8572H102.628V43.1264H99.9597V29.8572Z" fill="white"/>
<path d="M115.969 35.1649V37.8187H107.964V43.1264H105.296V27.2033H115.969V29.8572H107.964V35.1649H115.969ZM115.969 29.8572H118.638V35.1649H115.969V29.8572Z" fill="white"/>
<path d="M123.975 40.4726H121.307V27.2033H123.975V40.4726ZM131.975 40.4726V43.1264H123.969V40.4726H131.975ZM131.975 27.209H134.643V40.4782H131.975V27.209Z" fill="white"/>
<path d="M150.653 27.209V29.8628H145.317V43.1321H142.648V29.8628H137.312V27.209H150.653Z" fill="white"/>
<path d="M155.99 29.8572V32.511H163.995V35.1649H155.99V40.4726H163.995V43.1264H153.321V27.2033H163.995V29.8572H155.99Z" fill="white"/>
<path d="M177.332 35.1649V37.8187H169.327V43.1264H166.658V27.2033H177.332V29.8572H169.327V35.1649H177.332ZM177.332 29.8572H180V35.1649H177.332V29.8572ZM177.332 43.1264V37.8187H180V43.1264H177.332Z" fill="white"/>
<path d="M17.8851 30.646H10.4805V33.7055H17.8851V30.646Z" fill="#56BE89"/>
<path d="M14.9336 19.2869V8.23764H11.8573V19.2869H14.9336Z" fill="#56BE89"/>
<path d="M35.5511 16.5534L27.6953 8.74039L25.52 10.9038L33.3758 18.7168L35.5511 16.5534Z" fill="#56BE89"/>
<path d="M43.1758 24.5326H0V27.5921H43.1758V24.5326Z" fill="#56BE89"/>
<path d="M43.1758 0H0V3.05953H43.1758V0Z" fill="#56BE89"/>
<path d="M3.07617 46L3.07617 24.5269H-0.000123978L-0.000123978 46H3.07617Z" fill="#56BE89"/>
<path d="M3.07617 24.5326L3.07617 3.05954H-0.000121832L-0.000121832 24.5326H3.07617Z" fill="#56BE89"/>
<path d="M43.1758 24.5326V3.05954H40.0995V24.5326H43.1758Z" fill="#56BE89"/>
<path d="M43.1816 46V24.5269H40.1053V46H43.1816Z" fill="#56BE89"/>
<path d="M40.0993 42.9292H3.07617V45.9887H40.0993V42.9292Z" fill="#56BE89"/>
<path d="M17.8851 36.8102H10.4805V39.8697H17.8851V36.8102Z" fill="#56BE89"/>
<path d="M40.0999 33.7224H32.6953V36.782H40.0999V33.7224Z" fill="#56BE89"/>
<path d="M7.74471 15.2864L18.8545 15.2864V12.2268L7.74471 12.2268V15.2864Z" fill="#56BE89"/>
<path d="M27.6305 18.7804L35.4863 10.9674L33.3111 8.80402L25.4553 16.617L27.6305 18.7804Z" fill="#56BE89"/>
</svg>
