<?xml version="1.0" encoding="UTF-8" standalone="no"?>
<svg
   width="310.285"
   height="200.00018"
   viewBox="0 0 310.285 200.00018"
   fill="none"
   version="1.1"
   id="svg5"
   xmlns="http://www.w3.org/2000/svg"
   xmlns:svg="http://www.w3.org/2000/svg">
  <defs
     id="defs5">
    <linearGradient
       id="paint0_linear_5996_3879"
       x1="0"
       y1="0"
       x2="310"
       y2="200"
       gradientUnits="userSpaceOnUse">
      <stop
         stop-color="#44BCC3"
         id="stop2" />
      <stop
         offset="1"
         stop-color="#236D66"
         id="stop3" />
    </linearGradient>
    <linearGradient
       id="paint1_linear_5996_3879"
       x1="0"
       y1="0"
       x2="310"
       y2="200"
       gradientUnits="userSpaceOnUse">
      <stop
         stop-color="#44BCC3"
         id="stop4" />
      <stop
         offset="1"
         stop-color="#236D66"
         id="stop5" />
    </linearGradient>
  </defs>
  <g
     id="layer1">
    <path
       d="m 288.539,53.2725 c 1.545,7.1991 3.922,11.762 10.866,10.8387 5.964,-0.7895 10.88,-6.7709 10.88,-12.7523 0,-5.9813 -4.943,-9.8486 -10.88,-8.9119 -7.535,1.191 -12.128,4.9779 -10.866,10.8255 z"
       fill="url(#paint1_linear_5996_3879)"
       id="path2"
       style="fill:url(#paint1_linear_5996_3879)" />
    <path
       fill-rule="evenodd"
       clip-rule="evenodd"
       d="M 211.485,107.363 C 236.05,98.7914 259.2,84.1657 276.894,68.2862 l 0.013,0.0268 c 0.69,-0.6444 1.115,-1.5201 1.195,-2.4583 0.08,-0.9383 -0.191,-1.8728 -0.761,-2.6237 -0.571,-0.7509 -1.4,-1.265 -2.328,-1.4434 -0.928,-0.1785 -1.889,-0.0085 -2.699,0.4771 -17.749,10.6116 -37.337,19.0124 -57.417,24.14 0.6,-7.6363 0.473,-15.3211 -0.514,-22.9625 C 212.113,46.4749 206.351,29.521 194.37,16.6082 181.1,1.92904 159.314,-3.5573 140.509,2.31703 117.917,9.03437 99.0863,29.3871 98.361,53.6739 c -0.9134,31.981 28.878,58.0471 59.193,60.9781 3.536,0.387 7.104,0.575 10.691,0.58 -5.59,12.216 -12.844,23.886 -20.605,34.692 C 123.805,110.608 88.0739,78.4059 45.6016,60.7928 35.7099,56.608 25.4547,53.3337 14.964,51.0111 11.3912,50.2751 7.99302,49.6195 4.21873,49.2047 c -0.91644,-0.0866 -1.83372,0.1564 -2.58594,0.685 -0.752213,0.5287 -1.289722,1.308 -1.515277,2.1972 -0.225556,0.8891 -0.12428704,1.8293 0.285495,2.6505 0.409783,0.8213 1.101032,1.4693 1.948712,1.8269 23.71258,11.7251 45.46058,27.036 64.47178,45.3887 24.6364,23.702 44.0455,52.257 56.9905,83.846 5.708,13.609 23.613,18.587 35.594,9.836 1.839,-1.356 3.519,-2.914 5.01,-4.644 10.741,-11.643 20.197,-24.402 28.206,-38.056 8.182,-13.953 14.922,-29.452 18.861,-45.572 z m -53.156,62.331 0.004,0.008 0.309,0.629 c -0.099,-0.215 -0.203,-0.428 -0.313,-0.637 z m 18.288,-78.4512 c 1.875,-8.0129 2.807,-16.1597 2.508,-24.3617 -0.792,-14.7193 -6.46,-35.5135 -23.962,-35.8347 -15.07,-0.1739 -28.931,14.0636 -24.62,29.1843 6.382,22.0679 25.44,30.1168 46.074,31.0121 z"
       fill="url(#paint0_linear_5996_3879)"
       id="path1"
       style="fill:url(#paint0_linear_5996_3879)" />
  </g>
</svg>
