<svg width="78" height="83" viewBox="0 0 78 83" fill="none" xmlns="http://www.w3.org/2000/svg">
<path d="M33.8361 52.84H22.5188V57.5162H33.8361V52.84Z" fill="#36AA6F"/>
<path d="M29.3254 35.4783V18.5905H24.6236V35.4783H29.3254Z" fill="#36AA6F"/>
<path d="M60.8369 31.3L48.83 19.3585L45.5053 22.6651L57.5122 34.6066L60.8369 31.3Z" fill="#36AA6F"/>
<path d="M72.4906 43.4957H6.50018V48.1719H72.4906V43.4957Z" fill="#36AA6F"/>
<path d="M72.4906 6.00008H6.50018V10.6763H72.4906V6.00008Z" fill="#36AA6F"/>
<path d="M11.2021 76.3073L11.2021 43.4876H6.50023L6.50023 76.3073H11.2021Z" fill="#36AA6F"/>
<path d="M11.2021 43.4957L11.2021 10.676H6.50024L6.50024 43.4957H11.2021Z" fill="#36AA6F"/>
<path d="M72.491 43.4957V10.676H67.7891V43.4957H72.491Z" fill="#36AA6F"/>
<path d="M72.5002 76.3073V43.4876H67.7983V76.3073H72.5002Z" fill="#36AA6F"/>
<path d="M67.7888 71.6135H11.2021V76.2897H67.7888V71.6135Z" fill="#36AA6F"/>
<path d="M33.8361 62.2605H22.5188V66.9367H33.8361V62.2605Z" fill="#36AA6F"/>
<path d="M67.7897 57.5413H56.4724V62.2175H67.7897V57.5413Z" fill="#36AA6F"/>
<path d="M18.3381 29.364L35.3184 29.364V24.6877H18.3381V29.364Z" fill="#36AA6F"/>
<path d="M48.7316 34.7039L60.7385 22.7625L57.4138 19.4559L45.4069 31.3974L48.7316 34.7039Z" fill="#36AA6F"/>
</svg>
