<svg width="107" height="45" viewBox="0 0 107 45" fill="none" xmlns="http://www.w3.org/2000/svg">
<path fill-rule="evenodd" clip-rule="evenodd" d="M58.5582 36.9971C70.6186 39.383 83.7011 39.8229 95.156 35.3807C99.324 33.7649 102.885 31.3118 106.553 28.8332C106.81 28.6598 106.879 28.3086 106.705 28.0497C106.53 27.7912 106.178 27.7229 105.92 27.8982C102.322 30.3284 98.8353 32.743 94.7478 34.3276C83.4555 38.7068 70.5547 38.2353 58.6716 35.8691L58.6933 35.6833C58.9339 33.6673 57.6413 31.2357 55.5068 28.9256C52.4477 25.6139 47.703 22.5084 43.8842 21.1653C42.1681 20.5622 40.6275 20.3186 39.4831 20.5232C38.5906 20.6822 37.9138 21.1042 37.5043 21.7951C36.6324 23.2678 37.256 25.1242 38.8907 26.9933C42.3085 30.9035 50.0641 35.0412 53.859 35.9619C55.0442 36.249 56.2433 36.5209 57.4532 36.7723C57.4205 37.128 57.387 37.4763 57.3392 37.8134C57.2001 38.7735 56.9375 39.6568 56.1492 40.4513C54.9192 41.6882 53.1965 42.3714 51.3281 42.7309C48.4117 43.29 45.1383 43.0509 42.6847 42.7345C29.0199 40.9717 20.1423 33.3081 14.0002 24.7539C7.7987 16.1139 4.36989 6.56243 1.64542 1.14631C1.50584 0.867443 1.16627 0.756576 0.887401 0.896161C0.608533 1.03575 0.496247 1.37576 0.637251 1.65418C3.37886 7.10545 6.83985 16.7154 13.0839 25.4122C19.3873 34.195 28.5127 42.0447 42.5395 43.8553C45.0953 44.1851 48.5037 44.4227 51.5405 43.8403C53.6426 43.4361 55.5665 42.639 56.9506 41.2468C58.1921 39.9971 58.4007 38.5841 58.5582 36.9971ZM57.561 35.6413L57.5727 35.5489C57.7832 33.7867 56.5439 31.7122 54.6772 29.6925C51.7377 26.5101 47.1805 23.5223 43.5088 22.2316C42.2502 21.7883 41.1022 21.5457 40.1704 21.583C39.4019 21.6148 38.7942 21.8332 38.4771 22.3708C38.1752 22.8771 38.1701 23.4469 38.3647 24.048C38.5919 24.7542 39.0804 25.4945 39.7401 26.2499C43.0247 30.0069 50.4784 33.9799 54.1251 34.8643C55.2578 35.1381 56.4036 35.3985 57.561 35.6413Z" fill="#3B3B45"/>
</svg>
