<svg width="16" height="16" viewBox="0 0 16 16" fill="none" xmlns="http://www.w3.org/2000/svg">
<path d="M13.0391 7.30902H8.9375C8.56454 7.30902 8.20685 7.16591 7.94313 6.91118C7.67941 6.65645 7.53125 6.31097 7.53125 5.95073V1.98905C7.53125 1.95903 7.5189 1.93023 7.49693 1.90901C7.47495 1.88778 7.44514 1.87585 7.41406 1.87585H4.71875C4.22147 1.87585 3.74456 2.06666 3.39292 2.4063C3.04129 2.74594 2.84375 3.20659 2.84375 3.68691V12.7422C2.84375 13.2225 3.04129 13.6831 3.39292 14.0228C3.74456 14.3624 4.22147 14.5532 4.71875 14.5532H11.2812C11.7785 14.5532 12.2554 14.3624 12.6071 14.0228C12.9587 13.6831 13.1562 13.2225 13.1562 12.7422V7.42221C13.1562 7.39219 13.1439 7.3634 13.1219 7.34217C13.0999 7.32094 13.0701 7.30902 13.0391 7.30902Z" fill="#56BE89"/>
<path d="M12.7818 6.3077L8.56865 2.2382C8.56046 2.23033 8.55004 2.22498 8.53871 2.22282C8.52737 2.22065 8.51563 2.22177 8.50495 2.22604C8.49428 2.2303 8.48514 2.23752 8.4787 2.24678C8.47226 2.25604 8.4688 2.26694 8.46875 2.2781V5.95143C8.46875 6.07151 8.51814 6.18667 8.60604 6.27158C8.69395 6.35649 8.81318 6.40419 8.9375 6.40419H12.7405C12.7521 6.40414 12.7634 6.4008 12.773 6.39458C12.7825 6.38836 12.79 6.37953 12.7944 6.36922C12.7988 6.35891 12.8 6.34757 12.7978 6.33662C12.7955 6.32567 12.79 6.31561 12.7818 6.3077V6.3077Z" fill="#56BE89"/>
</svg>
