<svg xmlns="http://www.w3.org/2000/svg" version="1.1" xmlns:xlink="http://www.w3.org/1999/xlink" xmlns:svgjs="http://svgjs.dev/svgjs" width="512" height="512"><svg width="512" height="512" viewBox="0 0 135.46666 135.46667" version="1.1" id="SvgjsSvg1009" xmlns="http://www.w3.org/2000/svg" xmlns:svg="http://www.w3.org/2000/svg">
  <defs id="SvgjsDefs1008"></defs>
  <g id="SvgjsG1007">
    <path id="SvgjsPath1006" style="fill:#14c87d;fill-opacity:1;stroke-width:0.339956" d="M 0,0 V 135.46666 H 135.46666 V 0 Z M 42.414465,16.933333 A 25.4,25.380926 0 0 1 67.733332,42.308528 25.4,25.380926 0 0 1 42.428934,67.68734 v 0.0093 A 25.4,25.380926 0 0 1 67.733332,93.070287 25.4,25.380926 0 0 1 42.428934,118.44445 v 0.0889 H 17.029451 V 17.009814 h 25.385014 z m 76.109565,0 5.2e-4,101.534367 h 0.009 v 0.0656 C 90.46367,118.4501 67.73355,95.738494 67.733552,67.729685 67.739852,39.737416 90.451526,17.022993 118.52425,16.933303 Z M 17.014465,40.375313 v 3.86643 a 25.4,25.380926 0 0 1 -0.08113,-1.933215 25.4,25.380926 0 0 1 0.08113,-1.933215 z m 0,50.761759 v 3.86643 a 25.4,25.380926 0 0 1 -0.08113,-1.933215 25.4,25.380926 0 0 1 0.08113,-1.933215 z"></path>
    <path id="SvgjsPath1005" style="fill:#0e905b;fill-opacity:1;stroke-width:0.339956" d="M 50.130273,0 33.21606,17.009814 h 9.198405 v -0.07648 A 25.4,25.380926 0 0 1 67.733332,42.308528 25.4,25.380926 0 0 1 42.428934,67.68734 v 0.0093 A 25.4,25.380926 0 0 1 67.733332,93.070287 25.4,25.380926 0 0 1 42.428934,118.44445 v 0.0889 H 17.029451 V 33.28789 L 0,50.413976 V 135.46666 H 135.46666 V 0 Z m 68.393757,16.933333 5.2e-4,101.534367 h 0.009 v 0.0656 C 90.46348,118.45012 67.733331,95.738496 67.733332,67.729715 67.739612,39.737474 90.451334,17.023023 118.52403,16.933333 Z M 17.014465,40.375313 v 3.86643 a 25.4,25.380926 0 0 1 -0.08113,-1.933215 25.4,25.380926 0 0 1 0.08113,-1.933215 z m 0,50.761759 v 3.86643 a 25.4,25.380926 0 0 1 -0.08113,-1.933215 25.4,25.380926 0 0 1 0.08113,-1.933215 z"></path>
  </g>
</svg><style>@media (prefers-color-scheme: light) { :root { filter: none; } }
@media (prefers-color-scheme: dark) { :root { filter: none; } }
</style></svg>