<svg width="1000" height="1000" xmlns="http://www.w3.org/2000/svg" xmlns:xlink="http://www.w3.org/1999/xlink" version="1.1">
 <g>
  <title>Layer 1</title>
  <g id="svg_25" clip-path="url(#SvgjsClipPath1172)">
   <rect id="svg_26" fill="#121212" height="1000" width="1000"/>
   <g id="svg_12" transform="matrix(1.171875,0,0,1.171875,200,200)">
    <svg id="svg_27" height="512" width="512" version="1.1" xmlns:xlink="http://www.w3.org/1999/xlink" xmlns="http://www.w3.org/2000/svg">
     <svg id="svg_13" version="1.1" viewBox="0 0 135.46666 135.46667" height="512" width="512" xmlns="http://www.w3.org/2000/svg" xmlns:xlink="http://www.w3.org/1999/xlink">
      <defs id="svg_19">
       <clipPath id="svg_20">
        <rect id="svg_28" ry="150" rx="150" y="0" x="0" height="1000" width="1000"/>
       </clipPath>
       <linearGradient id="svg_21">
        <stop stop-color="#3ecf8e" id="svg_23" offset="0"/>
        <stop stop-opacity="0" stop-color="#000000" id="svg_22" offset="1"/>
       </linearGradient>
       <linearGradient xlink:href="#svg_21" y2="0.5" x2="1" y1="0.5" x1="0" id="svg_17"/>
      </defs>
      <g transform="matrix(1.3020834,0,0,1.3020834,-20.461114,-20.461127)" id="svg_14">
       <path stroke-width="0.37649" fill="#3ecf8e" d="m118.52403,16.93333c-0.026,0.00009 -0.0515,0.0019 -0.0775,0.0021l0.0775,0.07803l0,-0.08013zm-0.22634,0.0062c-0.81368,0.0061 -1.62361,0.02711 -2.42776,0.0708c0.8041,-0.04326 1.61424,-0.0647 2.42776,-0.0708zm0.22634,0.0925l-50.7907,50.7013c0.00006,0.87405 0.02234,1.74284 0.06615,2.60604c0.08773,1.7288 0.26202,3.43495 0.51883,5.1139c0.51363,3.3579 1.35694,6.60744 2.49597,9.71517c1.13904,3.10774 2.57404,6.07367 4.27055,8.86354c0.84824,1.39494 1.7619,2.74607 2.73678,4.04885c1.46232,1.95417 3.0624,3.79967 4.78575,5.52266c4.59562,4.5947 10.06856,8.31693 16.14682,10.89546c0.75979,0.32232 1.52866,0.62655 2.30683,0.91261c2.33466,0.85824 4.74949,1.55064 7.23057,2.06344c0.82698,0.17092 1.66105,0.32226 2.50217,0.45268c1.6824,0.2609 3.39162,0.43973 5.12424,0.53227c0.86623,0.0463 1.73815,0.0708 2.61534,0.0734l0,-0.0656l-0.009,0l-0.0003,-101.43572zm-71.16051,51.16794a25.4,25.38093 0 0 1 9.11314,3.79719a25.4,25.38093 0 0 0 -9.11314,-3.79719zm9.11314,3.79719a25.4,25.38093 0 0 1 3.75377,3.08715a25.4,25.38093 0 0 0 -3.75377,-3.08715zm3.83025,3.14967l-43.27746,43.2015l0,0.185l25.39948,0l0,-0.0889a25.4,25.38093 0 0 0 25.3044,-25.37414a25.4,25.38093 0 0 0 -7.42642,-17.92346z" id="svg_18"/>
       <path stroke-width="0.37649" fill="url(#svg_17)" d="m118.52403,16.93333c-0.026,0.00009 -0.0515,0.0019 -0.0775,0.0021l0.0775,0.07803l0,-0.08013zm-0.22634,0.0062c-0.81368,0.0061 -1.62361,0.02711 -2.42776,0.0708c0.8041,-0.04326 1.61424,-0.0647 2.42776,-0.0708zm0.22634,0.0925l-50.7907,50.7013c0.00006,0.87405 0.02234,1.74284 0.06615,2.60604c0.08773,1.7288 0.26202,3.43495 0.51883,5.1139c0.51363,3.3579 1.35694,6.60744 2.49597,9.71517c1.13904,3.10774 2.57404,6.07367 4.27055,8.86354c0.84824,1.39494 1.7619,2.74607 2.73678,4.04885c1.46232,1.95417 3.0624,3.79967 4.78575,5.52266c4.59562,4.5947 10.06856,8.31693 16.14682,10.89546c0.75979,0.32232 1.52866,0.62655 2.30683,0.91261c2.33466,0.85824 4.74949,1.55064 7.23057,2.06344c0.82698,0.17092 1.66105,0.32226 2.50217,0.45268c1.6824,0.2609 3.39162,0.43973 5.12424,0.53227c0.86623,0.0463 1.73815,0.0708 2.61534,0.0734l0,-0.0656l-0.009,0l-0.0003,-101.43572zm-71.16051,51.16794a25.4,25.38093 0 0 1 9.11314,3.79719a25.4,25.38093 0 0 0 -9.11314,-3.79719zm9.11314,3.79719a25.4,25.38093 0 0 1 3.75377,3.08715a25.4,25.38093 0 0 0 -3.75377,-3.08715zm3.83025,3.14967l-43.27746,43.2015l0,0.185l25.39948,0l0,-0.0889a25.4,25.38093 0 0 0 25.3044,-25.37414a25.4,25.38093 0 0 0 -7.42642,-17.92346z" id="svg_16"/>
       <path stroke-width="0.37649" fill="#3ecf8e" d="m42.41446,16.93333l0,0.07648l-9.1984,0l-16.18661,0l0,16.27808l0,85.06044l43.27746,-43.2015a25.4,25.38093 0 0 0 -17.87798,-7.45019l0,-0.0093a25.4,25.38093 0 0 0 25.3044,-25.37881a25.4,25.38093 0 0 0 -25.31887,-25.3752zm76.03206,0.0021c-1.72793,0.0081 -3.43597,0.09995 -5.11907,0.27544c-1.57739,0.16446 -3.1306,0.40906 -4.66173,0.71365c-2.61469,0.52014 -5.16002,1.23178 -7.61349,2.13424c-2.33397,0.85852 -4.58761,1.88251 -6.74637,3.05769c-0.71962,0.39175 -1.42895,0.80043 -2.12699,1.22525c-0.69792,0.42475 -1.38506,0.86564 -2.06034,1.3224c-1.93599,1.30949 -3.7725,2.75359 -5.50561,4.3093c-0.0806,0.07235 -0.16533,0.14005 -0.24546,0.2129l-0.00052,0.00052c-1.20203,1.0929 -2.3518,2.24237 -3.44423,3.44423l0,0.00052c-0.25352,0.27891 -0.4932,0.57023 -0.74053,0.85473c-0.81852,0.94153 -1.61382,1.90399 -2.36213,2.90421c-0.48724,0.65129 -0.95928,1.31421 -1.41541,1.98903l0,0.00052c-0.45605,0.67471 -0.89645,1.36108 -1.32034,2.05827c-1.27188,2.09193 -2.39672,4.28251 -3.36,6.55774c-0.64218,1.51682 -1.21243,3.07145 -1.70687,4.65915c-0.49444,1.58769 -0.91286,3.20851 -1.25109,4.85861c-0.33822,1.65011 -0.59643,3.32925 -0.76998,5.03329c-0.17354,1.70404 -0.26264,3.43312 -0.26303,5.18263l0,0.0036l50.7907,-50.70131l0,-0.0186l-0.07751,-0.07801zm-101.43206,23.43988a25.4,25.38093 0 0 0 -0.08113,1.93322a25.4,25.38093 0 0 0 0.08113,1.93321l0,-3.86643zm0,50.76176a25.4,25.38093 0 0 0 -0.08113,1.93322a25.4,25.38093 0 0 0 0.08113,1.93321l0,-3.86643z" id="svg_15"/>
      </g>
     </svg>
    </svg>
   </g>
  </g>
 </g>
</svg>
