<svg xmlns="http://www.w3.org/2000/svg" version="1.1" xmlns:xlink="http://www.w3.org/1999/xlink" xmlns:svgjs="http://svgjs.dev/svgjs" width="1000" height="1000"><g clip-path="url(#SvgjsClipPath1172)"><rect width="1000" height="1000" fill="#121212"></rect><g transform="matrix(1.171875,0,0,1.171875,200,200)"><svg xmlns="http://www.w3.org/2000/svg" version="1.1" xmlns:xlink="http://www.w3.org/1999/xlink" xmlns:svgjs="http://svgjs.dev/svgjs" width="512" height="512"><svg width="512" height="512" viewBox="0 0 135.46666 135.46667" version="1.1" id="svg1" xmlns:xlink="http://www.w3.org/1999/xlink" xmlns="http://www.w3.org/2000/svg" xmlns:svg="http://www.w3.org/2000/svg">
  <defs id="defs1">
    <linearGradient id="linearGradient2-1">
      <stop style="stop-color:#3ecf8e;stop-opacity:1;" offset="0" id="stop25"></stop>
      <stop style="stop-color:#000000;stop-opacity:0;" offset="1" id="stop26"></stop>
    </linearGradient>
    <linearGradient xlink:href="#linearGradient2-1" id="linearGradient23" x1="17.029451" y1="67.73333" x2="118.53333" y2="67.73333" gradientUnits="userSpaceOnUse"></linearGradient>
  <clipPath id="SvgjsClipPath1172"><rect width="1000" height="1000" x="0" y="0" rx="150" ry="150"></rect></clipPath></defs>
  <g id="layer3" transform="matrix(1.3020834,0,0,1.3020834,-20.461114,-20.461127)">
    <path id="rect1" style="display:inline;opacity:1;fill:#3ecf8e;fill-opacity:1;stroke-width:0.376489" d="m 118.52403,16.933333 c -0.026,8.3e-5 -0.0515,0.0019 -0.0775,0.0021 l 0.0775,0.07803 z m -0.22634,0.0062 c -0.81368,0.0061 -1.62361,0.02711 -2.42776,0.0708 0.8041,-0.04326 1.61424,-0.0647 2.42776,-0.0708 z m 0.22634,0.0925 -50.790698,50.701297 c 6.2e-5,0.874047 0.02234,1.742843 0.06615,2.606043 0.08773,1.728795 0.262016,3.43495 0.518832,5.1139 0.513629,3.357896 1.356941,6.607433 2.495971,9.715169 1.139031,3.107735 2.574039,6.073668 4.270541,8.863541 0.848249,1.394938 1.761903,2.74607 2.736783,4.048849 1.462322,1.954168 3.062398,3.799668 4.785755,5.522658 4.595618,4.5947 10.06856,8.31693 16.146818,10.89546 0.759785,0.32232 1.528658,0.62655 2.306828,0.91261 2.33466,0.85824 4.74949,1.55064 7.23057,2.06344 0.82698,0.17092 1.66105,0.32226 2.50217,0.45268 1.6824,0.2609 3.39162,0.43973 5.12424,0.53227 0.86623,0.0463 1.73815,0.0708 2.61534,0.0734 v -0.0656 h -0.009 z M 47.363517,68.199971 a 25.4,25.380926 0 0 1 9.113138,3.797184 25.4,25.380926 0 0 0 -9.113138,-3.797184 z m 9.113138,3.797184 a 25.4,25.380926 0 0 1 3.753776,3.08715 25.4,25.380926 0 0 0 -3.753776,-3.08715 z m 3.830258,3.149678 -43.277462,43.201497 v 0.185 h 25.399483 v -0.0889 A 25.4,25.380926 0 0 0 67.733332,93.070287 25.4,25.380926 0 0 0 60.306913,75.146833 Z"></path>
    <path id="path10" style="display:inline;opacity:1;fill:url(#linearGradient23);fill-opacity:1;stroke-width:0.376489" d="m 118.52403,16.933333 c -0.026,8.3e-5 -0.0515,0.0019 -0.0775,0.0021 l 0.0775,0.07803 z m -0.22634,0.0062 c -0.81368,0.0061 -1.62361,0.02711 -2.42776,0.0708 0.8041,-0.04326 1.61424,-0.0647 2.42776,-0.0708 z m 0.22634,0.0925 -50.790698,50.701297 c 6.2e-5,0.874047 0.02234,1.742843 0.06615,2.606043 0.08773,1.728795 0.262016,3.43495 0.518832,5.1139 0.513629,3.357896 1.356941,6.607433 2.495971,9.715169 1.139031,3.107735 2.574039,6.073668 4.270541,8.863541 0.848249,1.394938 1.761903,2.74607 2.736783,4.048849 1.462322,1.954168 3.062398,3.799668 4.785755,5.522658 4.595618,4.5947 10.06856,8.31693 16.146818,10.89546 0.759785,0.32232 1.528658,0.62655 2.306828,0.91261 2.33466,0.85824 4.74949,1.55064 7.23057,2.06344 0.82698,0.17092 1.66105,0.32226 2.50217,0.45268 1.6824,0.2609 3.39162,0.43973 5.12424,0.53227 0.86623,0.0463 1.73815,0.0708 2.61534,0.0734 v -0.0656 h -0.009 z M 47.363517,68.199971 a 25.4,25.380926 0 0 1 9.113138,3.797184 25.4,25.380926 0 0 0 -9.113138,-3.797184 z m 9.113138,3.797184 a 25.4,25.380926 0 0 1 3.753776,3.08715 25.4,25.380926 0 0 0 -3.753776,-3.08715 z m 3.830258,3.149678 -43.277462,43.201497 v 0.185 h 25.399483 v -0.0889 A 25.4,25.380926 0 0 0 67.733332,93.070287 25.4,25.380926 0 0 0 60.306913,75.146833 Z"></path>
    <path id="path1-9" style="display:inline;fill:#3ecf8e;fill-opacity:1;stroke-width:0.376489" d="m 42.414463,16.933333 v 0.07648 H 33.216058 17.029449 V 33.28789 118.34833 L 60.306911,75.146833 A 25.4,25.380926 0 0 0 42.428932,67.696642 v -0.0093 A 25.4,25.380926 0 0 0 67.73333,42.308528 25.4,25.380926 0 0 0 42.414463,16.933333 Z m 76.032057,0.0021 c -1.72793,0.0081 -3.43597,0.09995 -5.11907,0.275436 -1.57739,0.164461 -3.1306,0.409061 -4.66173,0.713651 -2.61469,0.520144 -5.16002,1.231781 -7.61349,2.134237 -2.333965,0.858519 -4.587605,1.882512 -6.746365,3.057694 -0.71963,0.391754 -1.42895,0.800425 -2.127,1.225248 -0.69792,0.424756 -1.385058,0.865645 -2.060338,1.3224 -1.935984,1.309489 -3.772496,2.753595 -5.505607,4.309298 -0.0806,0.07235 -0.165335,0.140056 -0.245463,0.212907 l -5.17e-4,5.17e-4 c -1.202032,1.092898 -2.351802,2.242372 -3.444234,3.444234 v 5.16e-4 c -0.253514,0.278914 -0.493192,0.570228 -0.740523,0.854729 -0.818521,0.94153 -1.613828,1.90399 -2.36213,2.904215 -0.487245,0.651282 -0.959286,1.314201 -1.415417,1.989026 v 5.17e-4 c -0.456047,0.674709 -0.896449,1.361087 -1.320333,2.058272 -1.271881,2.091929 -2.396727,4.282511 -3.360002,6.557739 -0.642182,1.51682 -1.212434,3.071451 -1.706872,4.659147 -0.494441,1.587698 -0.91286,3.208514 -1.251087,4.858618 -0.338225,1.650107 -0.596436,3.329242 -0.769978,5.033285 -0.173545,1.704043 -0.26264,3.433118 -0.263034,5.182629 v 0.0036 l 50.7907,-50.701313 v -0.0186 z M 17.014463,40.375313 a 25.4,25.380926 0 0 0 -0.08113,1.933215 25.4,25.380926 0 0 0 0.08113,1.933215 z m 0,50.761759 a 25.4,25.380926 0 0 0 -0.08113,1.933215 25.4,25.380926 0 0 0 0.08113,1.933215 z"></path>
  </g>
</svg></svg></g></g></svg>