<?xml version="1.0" encoding="UTF-8"?>
<svg id="Layer_2" data-name="Layer 2" xmlns="http://www.w3.org/2000/svg" viewBox="0 0 200 200">
  <defs>
    <style>
      .cls-1 {
        fill: #56be89;
      }

      .cls-2 {
        fill: #192620;
      }
    </style>
  </defs>
  <g id="Layer_1-2" data-name="Layer 1">
    <g>
      <rect class="cls-2" width="200" height="200"/>
      <g>
        <rect class="cls-1" x="68.04" y="120.03" width="23.86" height="7.95"/>
        <path class="cls-1" d="M44.17,40.2v119.61h7.95v-.03h95.74v.03h7.95V40.2H44.17ZM147.87,127.97h-24.15v7.95h24.15v15.89H52.13v-39.88h95.74v16.04ZM147.87,103.98H52.13v-55.83h95.74v55.83Z"/>
        <rect class="cls-1" x="68.04" y="135.91" width="23.86" height="7.95"/>
        <polygon class="cls-1" points="75.99 87.91 83.95 87.91 83.95 79.95 91.9 79.95 91.9 72 83.95 72 83.95 64.04 75.99 64.04 75.99 72 68.04 72 68.04 79.95 75.99 79.95 75.99 87.91"/>
        <polygon class="cls-1" points="113.48 87.86 119.74 81.6 126 87.86 131.62 82.23 125.37 75.97 131.62 69.72 126 64.09 119.74 70.35 113.48 64.09 107.86 69.72 114.12 75.97 107.86 82.23 113.48 87.86"/>
      </g>
    </g>
  </g>
</svg>