<?xml version="1.0" encoding="UTF-8"?>
<svg id="Layer_2" data-name="Layer 2" xmlns="http://www.w3.org/2000/svg" viewBox="0 0 672.62 261.47">
  <defs>
    <style>
      .cls-1 {
        fill: #fff;
      }
    </style>
  </defs>
  <g id="Layer_1-2" data-name="Layer 1">
    <g>
      <g>
        <circle class="cls-1" cx="1.9" cy="119.02" r="1.9"/>
        <circle class="cls-1" cx="25.78" cy="119.02" r="1.9"/>
        <circle class="cls-1" cx="49.67" cy="119.02" r="1.9"/>
        <circle class="cls-1" cx="73.56" cy="119.02" r="1.9"/>
        <circle class="cls-1" cx="97.44" cy="119.02" r="1.9"/>
        <circle class="cls-1" cx="121.33" cy="119.02" r="1.9"/>
        <circle class="cls-1" cx="145.22" cy="119.02" r="1.9"/>
        <circle class="cls-1" cx="169.1" cy="119.02" r="1.9"/>
        <circle class="cls-1" cx="192.99" cy="119.02" r="1.9"/>
        <circle class="cls-1" cx="216.88" cy="119.02" r="1.9"/>
        <circle class="cls-1" cx="240.76" cy="119.02" r="1.9"/>
        <circle class="cls-1" cx="264.65" cy="119.02" r="1.9"/>
        <circle class="cls-1" cx="288.54" cy="119.02" r="1.9"/>
        <circle class="cls-1" cx="312.43" cy="119.02" r="1.9"/>
        <circle class="cls-1" cx="336.31" cy="119.02" r="1.9"/>
        <circle class="cls-1" cx="360.2" cy="119.02" r="1.9"/>
        <circle class="cls-1" cx="384.09" cy="119.02" r="1.9"/>
        <circle class="cls-1" cx="407.97" cy="119.02" r="1.9"/>
        <circle class="cls-1" cx="431.86" cy="119.02" r="1.9"/>
        <circle class="cls-1" cx="455.75" cy="119.02" r="1.9"/>
        <circle class="cls-1" cx="479.63" cy="119.02" r="1.9"/>
        <circle class="cls-1" cx="503.52" cy="119.02" r="1.9"/>
        <circle class="cls-1" cx="527.41" cy="119.02" r="1.9"/>
        <circle class="cls-1" cx="551.29" cy="119.02" r="1.9"/>
        <circle class="cls-1" cx="575.18" cy="119.02" r="1.9"/>
        <circle class="cls-1" cx="599.07" cy="119.02" r="1.9"/>
        <circle class="cls-1" cx="622.95" cy="119.02" r="1.9"/>
        <circle class="cls-1" cx="646.84" cy="119.02" r="1.9"/>
        <circle class="cls-1" cx="670.73" cy="119.02" r="1.9"/>
      </g>
      <g>
        <circle class="cls-1" cx="1.9" cy="142.45" r="1.9"/>
        <circle class="cls-1" cx="25.78" cy="142.45" r="1.9"/>
        <circle class="cls-1" cx="49.67" cy="142.45" r="1.9"/>
        <circle class="cls-1" cx="73.56" cy="142.45" r="1.9"/>
        <circle class="cls-1" cx="97.44" cy="142.45" r="1.9"/>
        <circle class="cls-1" cx="121.33" cy="142.45" r="1.9"/>
        <circle class="cls-1" cx="145.22" cy="142.45" r="1.9"/>
        <circle class="cls-1" cx="169.1" cy="142.45" r="1.9"/>
        <circle class="cls-1" cx="192.99" cy="142.45" r="1.9"/>
        <circle class="cls-1" cx="216.88" cy="142.45" r="1.9"/>
        <circle class="cls-1" cx="240.76" cy="142.45" r="1.9"/>
        <circle class="cls-1" cx="264.65" cy="142.45" r="1.9"/>
        <circle class="cls-1" cx="288.54" cy="142.45" r="1.9"/>
        <circle class="cls-1" cx="312.43" cy="142.45" r="1.9"/>
        <circle class="cls-1" cx="336.31" cy="142.45" r="1.9"/>
        <circle class="cls-1" cx="360.2" cy="142.45" r="1.9"/>
        <circle class="cls-1" cx="384.09" cy="142.45" r="1.9"/>
        <circle class="cls-1" cx="407.97" cy="142.45" r="1.9"/>
        <circle class="cls-1" cx="431.86" cy="142.45" r="1.9"/>
        <circle class="cls-1" cx="455.75" cy="142.45" r="1.9"/>
        <circle class="cls-1" cx="479.63" cy="142.45" r="1.9"/>
        <circle class="cls-1" cx="503.52" cy="142.45" r="1.9"/>
        <circle class="cls-1" cx="527.41" cy="142.45" r="1.9"/>
        <circle class="cls-1" cx="551.29" cy="142.45" r="1.9"/>
        <circle class="cls-1" cx="575.18" cy="142.45" r="1.9"/>
        <circle class="cls-1" cx="599.07" cy="142.45" r="1.9"/>
        <circle class="cls-1" cx="622.95" cy="142.45" r="1.9"/>
        <circle class="cls-1" cx="646.84" cy="142.45" r="1.9"/>
        <circle class="cls-1" cx="670.73" cy="142.45" r="1.9"/>
      </g>
      <g>
        <circle class="cls-1" cx="1.9" cy="95.6" r="1.9"/>
        <circle class="cls-1" cx="25.78" cy="95.6" r="1.9"/>
        <circle class="cls-1" cx="49.67" cy="95.6" r="1.9"/>
        <circle class="cls-1" cx="73.56" cy="95.6" r="1.9"/>
        <circle class="cls-1" cx="97.44" cy="95.6" r="1.9"/>
        <circle class="cls-1" cx="121.33" cy="95.6" r="1.9"/>
        <circle class="cls-1" cx="145.22" cy="95.6" r="1.9"/>
        <circle class="cls-1" cx="169.1" cy="95.6" r="1.9"/>
        <circle class="cls-1" cx="192.99" cy="95.6" r="1.9"/>
        <circle class="cls-1" cx="216.88" cy="95.6" r="1.9"/>
        <circle class="cls-1" cx="240.76" cy="95.6" r="1.9"/>
        <circle class="cls-1" cx="264.65" cy="95.6" r="1.9"/>
        <circle class="cls-1" cx="288.54" cy="95.6" r="1.9"/>
        <circle class="cls-1" cx="312.43" cy="95.6" r="1.9"/>
        <circle class="cls-1" cx="336.31" cy="95.6" r="1.9"/>
        <circle class="cls-1" cx="360.2" cy="95.6" r="1.9"/>
        <circle class="cls-1" cx="384.09" cy="95.6" r="1.9"/>
        <circle class="cls-1" cx="407.97" cy="95.6" r="1.9"/>
        <circle class="cls-1" cx="431.86" cy="95.6" r="1.9"/>
        <circle class="cls-1" cx="455.75" cy="95.6" r="1.9"/>
        <circle class="cls-1" cx="479.63" cy="95.6" r="1.9"/>
        <circle class="cls-1" cx="503.52" cy="95.6" r="1.9"/>
        <circle class="cls-1" cx="527.41" cy="95.6" r="1.9"/>
        <circle class="cls-1" cx="551.29" cy="95.6" r="1.9"/>
        <circle class="cls-1" cx="575.18" cy="95.6" r="1.9"/>
        <circle class="cls-1" cx="599.07" cy="95.6" r="1.9"/>
        <circle class="cls-1" cx="622.95" cy="95.6" r="1.9"/>
        <circle class="cls-1" cx="646.84" cy="95.6" r="1.9"/>
        <circle class="cls-1" cx="670.73" cy="95.6" r="1.9"/>
      </g>
      <g>
        <circle class="cls-1" cx="1.9" cy="72.17" r="1.9"/>
        <circle class="cls-1" cx="25.78" cy="72.17" r="1.9"/>
        <circle class="cls-1" cx="49.67" cy="72.17" r="1.9"/>
        <circle class="cls-1" cx="73.56" cy="72.17" r="1.9"/>
        <circle class="cls-1" cx="97.44" cy="72.17" r="1.9"/>
        <circle class="cls-1" cx="121.33" cy="72.17" r="1.9"/>
        <circle class="cls-1" cx="145.22" cy="72.17" r="1.9"/>
        <circle class="cls-1" cx="169.1" cy="72.17" r="1.9"/>
        <circle class="cls-1" cx="192.99" cy="72.17" r="1.9"/>
        <circle class="cls-1" cx="216.88" cy="72.17" r="1.9"/>
        <circle class="cls-1" cx="240.76" cy="72.17" r="1.9"/>
        <circle class="cls-1" cx="264.65" cy="72.17" r="1.9"/>
        <circle class="cls-1" cx="288.54" cy="72.17" r="1.9"/>
        <circle class="cls-1" cx="312.43" cy="72.17" r="1.9"/>
        <circle class="cls-1" cx="336.31" cy="72.17" r="1.9"/>
        <circle class="cls-1" cx="360.2" cy="72.17" r="1.9"/>
        <circle class="cls-1" cx="384.09" cy="72.17" r="1.9"/>
        <circle class="cls-1" cx="407.97" cy="72.17" r="1.9"/>
        <circle class="cls-1" cx="431.86" cy="72.17" r="1.9"/>
        <circle class="cls-1" cx="455.75" cy="72.17" r="1.9"/>
        <circle class="cls-1" cx="479.63" cy="72.17" r="1.9"/>
        <circle class="cls-1" cx="503.52" cy="72.17" r="1.9"/>
        <circle class="cls-1" cx="527.41" cy="72.17" r="1.9"/>
        <circle class="cls-1" cx="551.29" cy="72.17" r="1.9"/>
        <circle class="cls-1" cx="575.18" cy="72.17" r="1.9"/>
        <circle class="cls-1" cx="599.07" cy="72.17" r="1.9"/>
        <circle class="cls-1" cx="622.95" cy="72.17" r="1.9"/>
        <circle class="cls-1" cx="646.84" cy="72.17" r="1.9"/>
        <circle class="cls-1" cx="670.73" cy="72.17" r="1.9"/>
      </g>
      <g>
        <circle class="cls-1" cx="1.9" cy="48.75" r="1.9"/>
        <circle class="cls-1" cx="25.78" cy="48.75" r="1.9"/>
        <circle class="cls-1" cx="49.67" cy="48.75" r="1.9"/>
        <circle class="cls-1" cx="73.56" cy="48.75" r="1.9"/>
        <circle class="cls-1" cx="97.44" cy="48.75" r="1.9"/>
        <circle class="cls-1" cx="121.33" cy="48.75" r="1.9"/>
        <circle class="cls-1" cx="145.22" cy="48.75" r="1.9"/>
        <circle class="cls-1" cx="169.1" cy="48.75" r="1.9"/>
        <circle class="cls-1" cx="192.99" cy="48.75" r="1.9"/>
        <circle class="cls-1" cx="216.88" cy="48.75" r="1.9"/>
        <circle class="cls-1" cx="240.76" cy="48.75" r="1.9"/>
        <circle class="cls-1" cx="264.65" cy="48.75" r="1.9"/>
        <circle class="cls-1" cx="288.54" cy="48.75" r="1.9"/>
        <circle class="cls-1" cx="312.43" cy="48.75" r="1.9"/>
        <circle class="cls-1" cx="336.31" cy="48.75" r="1.9"/>
        <circle class="cls-1" cx="360.2" cy="48.75" r="1.9"/>
        <circle class="cls-1" cx="384.09" cy="48.75" r="1.9"/>
        <circle class="cls-1" cx="407.97" cy="48.75" r="1.9"/>
        <circle class="cls-1" cx="431.86" cy="48.75" r="1.9"/>
        <circle class="cls-1" cx="455.75" cy="48.75" r="1.9"/>
        <circle class="cls-1" cx="479.63" cy="48.75" r="1.9"/>
        <circle class="cls-1" cx="503.52" cy="48.75" r="1.9"/>
        <circle class="cls-1" cx="527.41" cy="48.75" r="1.9"/>
        <circle class="cls-1" cx="551.29" cy="48.75" r="1.9"/>
        <circle class="cls-1" cx="575.18" cy="48.75" r="1.9"/>
        <circle class="cls-1" cx="599.07" cy="48.75" r="1.9"/>
        <circle class="cls-1" cx="622.95" cy="48.75" r="1.9"/>
        <circle class="cls-1" cx="646.84" cy="48.75" r="1.9"/>
        <circle class="cls-1" cx="670.73" cy="48.75" r="1.9"/>
      </g>
      <g>
        <circle class="cls-1" cx="1.9" cy="25.32" r="1.9"/>
        <circle class="cls-1" cx="25.78" cy="25.32" r="1.9"/>
        <circle class="cls-1" cx="49.67" cy="25.32" r="1.9"/>
        <circle class="cls-1" cx="73.56" cy="25.32" r="1.9"/>
        <circle class="cls-1" cx="97.44" cy="25.32" r="1.9"/>
        <circle class="cls-1" cx="121.33" cy="25.32" r="1.9"/>
        <circle class="cls-1" cx="145.22" cy="25.32" r="1.9"/>
        <circle class="cls-1" cx="169.1" cy="25.32" r="1.9"/>
        <circle class="cls-1" cx="192.99" cy="25.32" r="1.9"/>
        <circle class="cls-1" cx="216.88" cy="25.32" r="1.9"/>
        <circle class="cls-1" cx="240.76" cy="25.32" r="1.9"/>
        <circle class="cls-1" cx="264.65" cy="25.32" r="1.9"/>
        <circle class="cls-1" cx="288.54" cy="25.32" r="1.9"/>
        <circle class="cls-1" cx="312.43" cy="25.32" r="1.9"/>
        <circle class="cls-1" cx="336.31" cy="25.32" r="1.9"/>
        <circle class="cls-1" cx="360.2" cy="25.32" r="1.9"/>
        <circle class="cls-1" cx="384.09" cy="25.32" r="1.9"/>
        <circle class="cls-1" cx="407.97" cy="25.32" r="1.9"/>
        <circle class="cls-1" cx="431.86" cy="25.32" r="1.9"/>
        <circle class="cls-1" cx="455.75" cy="25.32" r="1.9"/>
        <circle class="cls-1" cx="479.63" cy="25.32" r="1.9"/>
        <circle class="cls-1" cx="503.52" cy="25.32" r="1.9"/>
        <circle class="cls-1" cx="527.41" cy="25.32" r="1.9"/>
        <circle class="cls-1" cx="551.29" cy="25.32" r="1.9"/>
        <circle class="cls-1" cx="575.18" cy="25.32" r="1.9"/>
        <circle class="cls-1" cx="599.07" cy="25.32" r="1.9"/>
        <circle class="cls-1" cx="622.95" cy="25.32" r="1.9"/>
        <circle class="cls-1" cx="646.84" cy="25.32" r="1.9"/>
        <circle class="cls-1" cx="670.73" cy="25.32" r="1.9"/>
      </g>
      <g>
        <circle class="cls-1" cx="1.9" cy="1.9" r="1.9"/>
        <circle class="cls-1" cx="25.78" cy="1.9" r="1.9"/>
        <circle class="cls-1" cx="49.67" cy="1.9" r="1.9"/>
        <circle class="cls-1" cx="73.56" cy="1.9" r="1.9"/>
        <circle class="cls-1" cx="97.44" cy="1.9" r="1.9"/>
        <circle class="cls-1" cx="121.33" cy="1.9" r="1.9"/>
        <circle class="cls-1" cx="145.22" cy="1.9" r="1.9"/>
        <circle class="cls-1" cx="169.1" cy="1.9" r="1.9"/>
        <circle class="cls-1" cx="192.99" cy="1.9" r="1.9"/>
        <circle class="cls-1" cx="216.88" cy="1.9" r="1.9"/>
        <circle class="cls-1" cx="240.76" cy="1.9" r="1.9"/>
        <circle class="cls-1" cx="264.65" cy="1.9" r="1.9"/>
        <circle class="cls-1" cx="288.54" cy="1.9" r="1.9"/>
        <circle class="cls-1" cx="312.43" cy="1.9" r="1.9"/>
        <circle class="cls-1" cx="336.31" cy="1.9" r="1.9"/>
        <circle class="cls-1" cx="360.2" cy="1.9" r="1.9"/>
        <circle class="cls-1" cx="384.09" cy="1.9" r="1.9"/>
        <circle class="cls-1" cx="407.97" cy="1.9" r="1.9"/>
        <circle class="cls-1" cx="431.86" cy="1.9" r="1.9"/>
        <circle class="cls-1" cx="455.75" cy="1.9" r="1.9"/>
        <circle class="cls-1" cx="479.63" cy="1.9" r="1.9"/>
        <circle class="cls-1" cx="503.52" cy="1.9" r="1.9"/>
        <circle class="cls-1" cx="527.41" cy="1.9" r="1.9"/>
        <circle class="cls-1" cx="551.29" cy="1.9" r="1.9"/>
        <circle class="cls-1" cx="575.18" cy="1.9" r="1.9"/>
        <circle class="cls-1" cx="599.07" cy="1.9" r="1.9"/>
        <circle class="cls-1" cx="622.95" cy="1.9" r="1.9"/>
        <circle class="cls-1" cx="646.84" cy="1.9" r="1.9"/>
        <circle class="cls-1" cx="670.73" cy="1.9" r="1.9"/>
      </g>
      <g>
        <circle class="cls-1" cx="1.9" cy="165.87" r="1.9"/>
        <circle class="cls-1" cx="25.78" cy="165.87" r="1.9"/>
        <circle class="cls-1" cx="49.67" cy="165.87" r="1.9"/>
        <circle class="cls-1" cx="73.56" cy="165.87" r="1.9"/>
        <circle class="cls-1" cx="97.44" cy="165.87" r="1.9"/>
        <circle class="cls-1" cx="121.33" cy="165.87" r="1.9"/>
        <circle class="cls-1" cx="145.22" cy="165.87" r="1.9"/>
        <circle class="cls-1" cx="169.1" cy="165.87" r="1.9"/>
        <circle class="cls-1" cx="192.99" cy="165.87" r="1.9"/>
        <circle class="cls-1" cx="216.88" cy="165.87" r="1.9"/>
        <circle class="cls-1" cx="240.76" cy="165.87" r="1.9"/>
        <circle class="cls-1" cx="264.65" cy="165.87" r="1.9"/>
        <circle class="cls-1" cx="288.54" cy="165.87" r="1.9"/>
        <circle class="cls-1" cx="312.43" cy="165.87" r="1.9"/>
        <circle class="cls-1" cx="336.31" cy="165.87" r="1.9"/>
        <circle class="cls-1" cx="360.2" cy="165.87" r="1.9"/>
        <circle class="cls-1" cx="384.09" cy="165.87" r="1.9"/>
        <circle class="cls-1" cx="407.97" cy="165.87" r="1.9"/>
        <circle class="cls-1" cx="431.86" cy="165.87" r="1.9"/>
        <circle class="cls-1" cx="455.75" cy="165.87" r="1.9"/>
        <circle class="cls-1" cx="479.63" cy="165.87" r="1.9"/>
        <circle class="cls-1" cx="503.52" cy="165.87" r="1.9"/>
        <circle class="cls-1" cx="527.41" cy="165.87" r="1.9"/>
        <circle class="cls-1" cx="551.29" cy="165.87" r="1.9"/>
        <circle class="cls-1" cx="575.18" cy="165.87" r="1.9"/>
        <circle class="cls-1" cx="599.07" cy="165.87" r="1.9"/>
        <circle class="cls-1" cx="622.95" cy="165.87" r="1.9"/>
        <circle class="cls-1" cx="646.84" cy="165.87" r="1.9"/>
        <circle class="cls-1" cx="670.73" cy="165.87" r="1.9"/>
      </g>
      <g>
        <circle class="cls-1" cx="1.9" cy="189.3" r="1.9"/>
        <circle class="cls-1" cx="25.78" cy="189.3" r="1.9"/>
        <circle class="cls-1" cx="49.67" cy="189.3" r="1.9"/>
        <circle class="cls-1" cx="73.56" cy="189.3" r="1.9"/>
        <circle class="cls-1" cx="97.44" cy="189.3" r="1.9"/>
        <circle class="cls-1" cx="121.33" cy="189.3" r="1.9"/>
        <circle class="cls-1" cx="145.22" cy="189.3" r="1.9"/>
        <circle class="cls-1" cx="169.1" cy="189.3" r="1.9"/>
        <circle class="cls-1" cx="192.99" cy="189.3" r="1.9"/>
        <circle class="cls-1" cx="216.88" cy="189.3" r="1.9"/>
        <circle class="cls-1" cx="240.76" cy="189.3" r="1.9"/>
        <circle class="cls-1" cx="264.65" cy="189.3" r="1.9"/>
        <circle class="cls-1" cx="288.54" cy="189.3" r="1.9"/>
        <circle class="cls-1" cx="312.43" cy="189.3" r="1.9"/>
        <circle class="cls-1" cx="336.31" cy="189.3" r="1.9"/>
        <circle class="cls-1" cx="360.2" cy="189.3" r="1.9"/>
        <circle class="cls-1" cx="384.09" cy="189.3" r="1.9"/>
        <circle class="cls-1" cx="407.97" cy="189.3" r="1.9"/>
        <circle class="cls-1" cx="431.86" cy="189.3" r="1.9"/>
        <circle class="cls-1" cx="455.75" cy="189.3" r="1.9"/>
        <circle class="cls-1" cx="479.63" cy="189.3" r="1.9"/>
        <circle class="cls-1" cx="503.52" cy="189.3" r="1.9"/>
        <circle class="cls-1" cx="527.41" cy="189.3" r="1.9"/>
        <circle class="cls-1" cx="551.29" cy="189.3" r="1.9"/>
        <circle class="cls-1" cx="575.18" cy="189.3" r="1.9"/>
        <circle class="cls-1" cx="599.07" cy="189.3" r="1.9"/>
        <circle class="cls-1" cx="622.95" cy="189.3" r="1.9"/>
        <circle class="cls-1" cx="646.84" cy="189.3" r="1.9"/>
        <circle class="cls-1" cx="670.73" cy="189.3" r="1.9"/>
      </g>
      <g>
        <circle class="cls-1" cx="1.9" cy="212.72" r="1.9"/>
        <circle class="cls-1" cx="25.78" cy="212.72" r="1.9"/>
        <circle class="cls-1" cx="49.67" cy="212.72" r="1.9"/>
        <circle class="cls-1" cx="73.56" cy="212.72" r="1.9"/>
        <circle class="cls-1" cx="97.44" cy="212.72" r="1.9"/>
        <circle class="cls-1" cx="121.33" cy="212.72" r="1.9"/>
        <circle class="cls-1" cx="145.22" cy="212.72" r="1.9"/>
        <circle class="cls-1" cx="169.1" cy="212.72" r="1.9"/>
        <circle class="cls-1" cx="192.99" cy="212.72" r="1.9"/>
        <circle class="cls-1" cx="216.88" cy="212.72" r="1.9"/>
        <circle class="cls-1" cx="240.76" cy="212.72" r="1.9"/>
        <circle class="cls-1" cx="264.65" cy="212.72" r="1.9"/>
        <circle class="cls-1" cx="288.54" cy="212.72" r="1.9"/>
        <circle class="cls-1" cx="312.43" cy="212.72" r="1.9"/>
        <circle class="cls-1" cx="336.31" cy="212.72" r="1.9"/>
        <circle class="cls-1" cx="360.2" cy="212.72" r="1.9"/>
        <circle class="cls-1" cx="384.09" cy="212.72" r="1.9"/>
        <circle class="cls-1" cx="407.97" cy="212.72" r="1.9"/>
        <circle class="cls-1" cx="431.86" cy="212.72" r="1.9"/>
        <circle class="cls-1" cx="455.75" cy="212.72" r="1.9"/>
        <circle class="cls-1" cx="479.63" cy="212.72" r="1.9"/>
        <circle class="cls-1" cx="503.52" cy="212.72" r="1.9"/>
        <circle class="cls-1" cx="527.41" cy="212.72" r="1.9"/>
        <circle class="cls-1" cx="551.29" cy="212.72" r="1.9"/>
        <circle class="cls-1" cx="575.18" cy="212.72" r="1.9"/>
        <circle class="cls-1" cx="599.07" cy="212.72" r="1.9"/>
        <circle class="cls-1" cx="622.95" cy="212.72" r="1.9"/>
        <circle class="cls-1" cx="646.84" cy="212.72" r="1.9"/>
        <circle class="cls-1" cx="670.73" cy="212.72" r="1.9"/>
      </g>
      <g>
        <circle class="cls-1" cx="1.9" cy="236.15" r="1.9"/>
        <circle class="cls-1" cx="25.78" cy="236.15" r="1.9"/>
        <circle class="cls-1" cx="49.67" cy="236.15" r="1.9"/>
        <circle class="cls-1" cx="73.56" cy="236.15" r="1.9"/>
        <circle class="cls-1" cx="97.44" cy="236.15" r="1.9"/>
        <circle class="cls-1" cx="121.33" cy="236.15" r="1.9"/>
        <circle class="cls-1" cx="145.22" cy="236.15" r="1.9"/>
        <circle class="cls-1" cx="169.1" cy="236.15" r="1.9"/>
        <circle class="cls-1" cx="192.99" cy="236.15" r="1.9"/>
        <circle class="cls-1" cx="216.88" cy="236.15" r="1.9"/>
        <circle class="cls-1" cx="240.76" cy="236.15" r="1.9"/>
        <circle class="cls-1" cx="264.65" cy="236.15" r="1.9"/>
        <circle class="cls-1" cx="288.54" cy="236.15" r="1.9"/>
        <circle class="cls-1" cx="312.43" cy="236.15" r="1.9"/>
        <circle class="cls-1" cx="336.31" cy="236.15" r="1.9"/>
        <circle class="cls-1" cx="360.2" cy="236.15" r="1.9"/>
        <circle class="cls-1" cx="384.09" cy="236.15" r="1.9"/>
        <circle class="cls-1" cx="407.97" cy="236.15" r="1.9"/>
        <circle class="cls-1" cx="431.86" cy="236.15" r="1.9"/>
        <circle class="cls-1" cx="455.75" cy="236.15" r="1.9"/>
        <circle class="cls-1" cx="479.63" cy="236.15" r="1.9"/>
        <circle class="cls-1" cx="503.52" cy="236.15" r="1.9"/>
        <circle class="cls-1" cx="527.41" cy="236.15" r="1.9"/>
        <circle class="cls-1" cx="551.29" cy="236.15" r="1.9"/>
        <circle class="cls-1" cx="575.18" cy="236.15" r="1.9"/>
        <circle class="cls-1" cx="599.07" cy="236.15" r="1.9"/>
        <circle class="cls-1" cx="622.95" cy="236.15" r="1.9"/>
        <circle class="cls-1" cx="646.84" cy="236.15" r="1.9"/>
        <circle class="cls-1" cx="670.73" cy="236.15" r="1.9"/>
      </g>
      <g>
        <circle class="cls-1" cx="1.9" cy="259.57" r="1.9"/>
        <circle class="cls-1" cx="25.78" cy="259.57" r="1.9"/>
        <circle class="cls-1" cx="49.67" cy="259.57" r="1.9"/>
        <circle class="cls-1" cx="73.56" cy="259.57" r="1.9"/>
        <circle class="cls-1" cx="97.44" cy="259.57" r="1.9"/>
        <circle class="cls-1" cx="121.33" cy="259.57" r="1.9"/>
        <circle class="cls-1" cx="145.22" cy="259.57" r="1.9"/>
        <circle class="cls-1" cx="169.1" cy="259.57" r="1.9"/>
        <circle class="cls-1" cx="192.99" cy="259.57" r="1.9"/>
        <circle class="cls-1" cx="216.88" cy="259.57" r="1.9"/>
        <circle class="cls-1" cx="240.76" cy="259.57" r="1.9"/>
        <circle class="cls-1" cx="264.65" cy="259.57" r="1.9"/>
        <circle class="cls-1" cx="288.54" cy="259.57" r="1.9"/>
        <circle class="cls-1" cx="312.43" cy="259.57" r="1.9"/>
        <circle class="cls-1" cx="336.31" cy="259.57" r="1.9"/>
        <circle class="cls-1" cx="360.2" cy="259.57" r="1.9"/>
        <circle class="cls-1" cx="384.09" cy="259.57" r="1.9"/>
        <circle class="cls-1" cx="407.97" cy="259.57" r="1.9"/>
        <circle class="cls-1" cx="431.86" cy="259.57" r="1.9"/>
        <circle class="cls-1" cx="455.75" cy="259.57" r="1.9"/>
        <circle class="cls-1" cx="479.63" cy="259.57" r="1.9"/>
        <circle class="cls-1" cx="503.52" cy="259.57" r="1.9"/>
        <circle class="cls-1" cx="527.41" cy="259.57" r="1.9"/>
        <circle class="cls-1" cx="551.29" cy="259.57" r="1.9"/>
        <circle class="cls-1" cx="575.18" cy="259.57" r="1.9"/>
        <circle class="cls-1" cx="599.07" cy="259.57" r="1.9"/>
        <circle class="cls-1" cx="622.95" cy="259.57" r="1.9"/>
        <circle class="cls-1" cx="646.84" cy="259.57" r="1.9"/>
        <circle class="cls-1" cx="670.73" cy="259.57" r="1.9"/>
      </g>
    </g>
  </g>
</svg>